<?xml version="1.0" encoding="UTF-8" standalone="no"?>
<!-- Created with Inkscape (http://www.inkscape.org/) -->
<svg xmlns:inkscape="http://www.inkscape.org/namespaces/inkscape" xmlns:rdf="http://www.w3.org/1999/02/22-rdf-syntax-ns#" xmlns="http://www.w3.org/2000/svg" xmlns:xlink="http://www.w3.org/1999/xlink" xmlns:ns1="http://sozi.baierouge.fr" xmlns:cc="http://creativecommons.org/ns#" xmlns:sodipodi="http://sodipodi.sourceforge.net/DTD/sodipodi-0.dtd" xmlns:dc="http://purl.org/dc/elements/1.1/" id="svg2" xml:space="preserve" viewBox="0 0 46.5 23.701" version="1.1" inkscape:version="0.91 r13725">
  <g id="g10" transform="matrix(1.25 0 0 -1.25 0 23.701)">
    <g id="g12">
      <path id="path14" style="fill-rule:evenodd;fill:#4b4330" d="m9.926 14.883c6.535 1.863 10.027 2.797 10.48 2.797 0.399 0 3.282-1.227 8.641-3.68 5.254-2.399 7.945-3.664 8.082-3.801 0.183-0.16 0.012-0.613-0.524-1.359-0.613-0.774-0.957-1.211-1.039-1.317-0.16-0.242-6.984-2.75-20.48-7.523-0.426-0.078-4.852 2.773-13.277 8.562-0.321 0.454-0.641 0.918-0.961 1.399-0.614 1.012-0.895 1.652-0.84 1.922 0.051 0.133 3.359 1.133 9.918 3z" inkscape:connector-curvature="0"/>
      <path id="path16" style="fill-rule:evenodd;fill:#060c00" d="m35.566 7.519-20.32-7.281-0.238 2.363 22.117 7.598c-0.105-0.773-0.348-1.316-0.719-1.641-0.238-0.21-0.453-0.453-0.64-0.718l-0.2-0.321z" inkscape:connector-curvature="0"/>
      <path id="path18" style="fill-rule:evenodd;fill:#1d191a" d="m0.367 11.961 14.801-9.121-0.082-2.84-13.281 8.562-1.637 2.321c-0.109 0.156-0.109 0.383 0 0.679l0.199 0.399z" inkscape:connector-curvature="0"/>
      <path id="path20" style="fill-rule:evenodd;fill:#362f22" d="m4.367 9.641-3.199 2.242 19.316 5.359 0.282-2.762-16.399-4.839z" inkscape:connector-curvature="0"/>
      <path id="path22" style="fill-rule:evenodd;fill:#262118" d="m32.887 9.199-12.321 5.442-0.082 2.32 15.442-6.602-3.039-1.16z" inkscape:connector-curvature="0"/>
      <path id="path24" style="fill-rule:evenodd;fill:#d9b456" d="m20.766 16.039c0.32 0 1.015 0.109 2.082 0.32 0.933 0.082 1.386-0.265 1.359-1.039l0.121-0.238c0.266 0.211 0.531 0.344 0.797 0.398 0.348 0.055 0.559-0.078 0.641-0.398 0.187 0.078 0.414 0.105 0.679 0.078 0.27-0.051 0.481-0.16 0.641-0.32 0.453-0.504 0.68-0.891 0.68-1.157 0-0.214 0.093-0.441 0.281-0.683 0.16-0.211 0.187-0.492 0.082-0.84-0.055-0.211-0.027-0.492 0.078-0.84 0.082-0.293 0.082-0.453 0-0.48-0.211-0.051-0.652-0.239-1.32-0.559-0.692-0.348-1.133-0.574-1.317-0.68-0.242-0.187-0.59-0.269-1.043-0.242-0.453 0.028-0.757-0.027-0.918-0.16-0.214-0.133-0.629-0.211-1.242-0.238-0.824-0.055-1.277-0.082-1.359-0.082-0.746-0.078-1.211-0.184-1.399-0.321-0.132-0.078-0.281-0.226-0.441-0.437-0.211-0.242-0.371-0.402-0.48-0.48-0.825-0.641-1.68-0.735-2.559-0.282-1.414 0.668-2.215 1.012-2.402 1.039-0.637 0.082-1 0.133-1.079 0.16-0.32 0.083-0.613 0.266-0.878 0.563l-0.364 0.441c-0.133 0.161-0.281 0.278-0.441 0.36-0.426 0.027-0.746 0.094-0.957 0.199-0.696 0.32-0.949 0.84-0.762 1.559 0.133 0.64 0.508 1.175 1.121 1.601 0.293 0.215 0.613 0.348 0.961 0.399 0.211 0.027 0.57 0.082 1.078 0.16 0.348 0.109 0.614 0.293 0.801 0.558 0.078 0.16 0.227 0.414 0.438 0.762 0.187 0.215 0.628 0.602 1.32 1.16 0.242 0.238 0.508 0.399 0.801 0.481 0.16 0.054 0.468 0.105 0.922 0.16 0.558 0.055 1.199-0.055 1.917-0.32 0.215-0.083 0.575-0.2 1.083-0.36 0.453-0.16 0.812-0.242 1.078-0.242z" inkscape:connector-curvature="0"/>
      <path id="path26" style="fill-rule:evenodd;fill:#ffd465" d="m19.406 16.039-0.679 0.16c0.132-0.16 0.132-0.316 0-0.476-0.11-0.161-0.293-0.215-0.559-0.161-0.297 0.079-0.508 0.133-0.641 0.161-1.254 0.105-2.293-0.364-3.121-1.403 0.188 0.774 0.895 1.426 2.121 1.961 1.305 0.535 2.266 0.453 2.879-0.242z" inkscape:connector-curvature="0"/>
      <path id="path28" style="fill-rule:evenodd;fill:#ffd465" d="m26.086 14.68h-0.379c0.258-0.02 0.398-0.114 0.418-0.282 0.027-0.211-0.16-0.332-0.559-0.359-0.187-0.023-0.453 0.027-0.8 0.16-0.293 0.133-0.532 0.176-0.719 0.121-0.106-0.027-0.227-0.121-0.359-0.281-0.161-0.16-0.282-0.238-0.36-0.238-0.187-0.028-0.308 0-0.359 0.078-0.11 0.082-0.203 0.133-0.281 0.16-0.215 0.055-0.415 0.148-0.602 0.281-0.293 0.188-0.465 0.293-0.52 0.321-0.398 0.183-0.718 0.238-0.961 0.16-0.105-0.028-0.386-0.176-0.839-0.442-0.266-0.133-0.625-0.238-1.078-0.32-0.481-0.106-0.856-0.215-1.122-0.32l-1.078-0.598c-0.215 0.027-0.336 0.117-0.359 0.277-0.027 0.137 0.039 0.27 0.199 0.403 0.078 0.082 0.238 0.121 0.481 0.121 0.132 0.023 0.304 0.039 0.519 0.039 0.078 0.027 0.426 0.172 1.039 0.437 0.426 0.16 1.106 0.485 2.039 0.961 0.856 0.321 1.586 0.36 2.199 0.121 0.188-0.082 0.442-0.265 0.762-0.558 0.238-0.215 0.492-0.321 0.762-0.321 0.051 0 0.383 0.094 1 0.282 0.398 0.105 0.719 0.039 0.957-0.203z" inkscape:connector-curvature="0"/>
      <path id="path30" style="fill-rule:evenodd;fill:#ffd465" d="m14.527 13.641v-0.02c-0.086-0.387-0.297-0.605-0.64-0.66-0.188-0.028-0.559 0-1.121 0.082-0.664 0.133-1.094 0.133-1.282 0-0.023 0-0.316-0.309-0.879-0.922-0.425 0.215-0.453 0.508-0.078 0.883 0.321 0.347 0.68 0.57 1.078 0.679 0.426 0.133 0.934 0.2 1.52 0.2 0.387 0 0.734-0.039 1.043-0.121 0.125-0.036 0.246-0.075 0.359-0.121z" inkscape:connector-curvature="0"/>
      <path id="path32" style="fill-rule:evenodd;fill:#ffd465" d="m17.285 12.562-0.277 0.239c0.051 0 0.226-0.028 0.519-0.078 0.028-0.348-0.187-0.59-0.64-0.723-0.321-0.078-0.696-0.078-1.121 0-0.454 0.133-0.813 0.215-1.078 0.242-0.536 0.051-0.68-0.133-0.442-0.559 0.082-0.16 0.68-0.308 1.801-0.441 0.371-0.082 0.68-0.215 0.918-0.402 0.347-0.239 0.242-0.438-0.32-0.598-0.184-0.082-0.493 0.027-0.918 0.32-0.508 0.371-0.813 0.571-0.922 0.598-0.532 0.082-0.907 0.148-1.117 0.199-0.348 0.11-0.426 0.348-0.243 0.723 0.243 0.398 0.84 0.613 1.801 0.641 0.774 0.05 1.453 0 2.039-0.161z" inkscape:connector-curvature="0"/>
      <path id="path34" style="fill-rule:evenodd;fill:#ffd465" d="m23.688 13.281c-0.321-0.695-0.84-0.867-1.563-0.519-0.797 0.398-1.332 0.437-1.598 0.121-0.16-0.188-0.148-0.403 0.039-0.645 0.188-0.265 0.254-0.492 0.2-0.68-0.133-0.343-0.454-0.558-0.961-0.636-0.453-0.055-0.879 0-1.278 0.16 0.078 0.051 0.387 0.117 0.918 0.199 0.426 0.078 0.653 0.277 0.68 0.598 0.027 0.16-0.117 0.426-0.441 0.801-0.211 0.265-0.157 0.546 0.16 0.839 0.297 0.243 0.601 0.321 0.922 0.243 0.187-0.055 0.507-0.161 0.961-0.321 0.531-0.093 1.187-0.144 1.961-0.16z" inkscape:connector-curvature="0"/>
      <path id="path36" style="fill-rule:evenodd;fill:#91793a" d="m18.645 15.281c-0.372-0.055-0.68-0.105-0.918-0.16-0.243-0.055-0.559-0.281-0.961-0.68-0.399-0.347-0.692-0.519-0.879-0.519 0.078 0.719 0.558 1.332 1.441 1.84 0.84 0.504 1.539 0.523 2.098 0.058l0.019-0.019c-0.015-0.02-0.027-0.039-0.039-0.059-0.234-0.258-0.484-0.41-0.761-0.461z" inkscape:connector-curvature="0"/>
      <path id="path38" style="fill-rule:evenodd;fill:#91793a" d="m26.047 13.641c-0.133-0.106-0.293-0.36-0.481-0.758-0.214-0.375-0.398-0.641-0.558-0.801 0.023 0.371 0.051 0.68 0.078 0.918 0.055 0.453 0.176 0.707 0.359 0.762 0.133 0.027 0.336-0.016 0.602-0.121z" inkscape:connector-curvature="0"/>
      <path id="path40" style="fill-rule:evenodd;fill:#91793a" d="m23.848 11.601c0.504 0 0.89 0.161 1.16 0.481-0.028-0.348-0.082-0.813-0.16-1.399-0.055-0.507-0.149-0.949-0.282-1.32-0.507 0-0.828-0.055-0.961-0.16-0.21-0.133-0.625-0.215-1.238-0.242-0.828-0.051-1.281-0.078-1.359-0.078-0.75-0.082-1.215-0.188-1.403-0.321-0.132-0.082-0.277-0.226-0.437-0.441-0.215-0.238-0.375-0.398-0.484-0.48-0.825-0.641-1.68-0.735-2.559-0.282-1.414 0.668-2.215 1.016-2.398 1.043-0.641 0.078-1 0.133-1.082 0.16-0.321 0.079-0.614 0.266-0.879 0.559l-0.36 0.441c-0.133 0.161-0.281 0.278-0.441 0.36-0.426 0.027-0.746 0.094-0.957 0.199-0.563 0.238-0.84 0.652-0.84 1.238 0.316 0.215 0.613 0.282 0.879 0.203 0.16-0.054 0.437-0.203 0.84-0.441 0.293-0.133 0.664-0.188 1.121-0.16 0.613 0 1-0.012 1.16-0.039 0.426-0.055 0.77-0.188 1.039-0.403 0.188-0.16 0.414-0.425 0.68-0.796 0.453-0.618 0.906-1.028 1.359-1.243 0.641-0.32 1.172-0.148 1.602 0.52 0.16 0.215 0.293 0.453 0.398 0.719 0.133 0.132 0.442 0.187 0.922 0.16 0.238-0.028 0.598-0.067 1.078-0.117 0.453-0.055 0.828-0.016 1.121 0.117 0.293 0.109 0.465 0.293 0.52 0.558 0.078 0.403 0.172 0.696 0.281 0.883 0.238 0.399 0.492 0.574 0.758 0.52 0.16-0.028 0.469-0.106 0.922-0.239z" inkscape:connector-curvature="0"/>
      <path id="path42" style="fill-rule:evenodd;fill:#91793a" d="m27.766 13.84v-0.157c0-0.187 0.039-0.347 0.121-0.484 0.051-0.078 0.133-0.183 0.238-0.316l-0.441-0.16c-0.239-0.028-0.516 0.078-0.84 0.316-0.344 0.297-0.614 0.496-0.797 0.602 0.265 0.214 0.637 0.253 1.117 0.121l0.082 0.238 0.52-0.16z" inkscape:connector-curvature="0"/>
      <path id="path44" style="fill-rule:evenodd;fill:#91793a" d="m18.207 10.519c0.16-0.347 0-0.492-0.48-0.437 0.027 0.32-0.122 0.625-0.442 0.918-0.293 0.32-0.613 0.508-0.957 0.562 0 0.184 0.344 0.36 1.039 0.52 0.692 0.141 1.125 0.328 1.301 0.559 0.125-0.043 0.227-0.137 0.297-0.282-0.078-0.133-0.32-0.293-0.719-0.48-0.32-0.16-0.465-0.36-0.441-0.598 0-0.082 0.136-0.332 0.402-0.762z" inkscape:connector-curvature="0"/>
      <path id="path46" style="fill-rule:evenodd;fill:#91793a" d="m14.445 13.441 0.082 0.242c0 0.184 0.067 0.333 0.2 0.438l0.679-0.398c0.078-0.403 0.012-0.641-0.199-0.723-0.348-0.051-0.629-0.117-0.84-0.199-0.105-0.055-0.359-0.227-0.762-0.52-0.293-0.187-0.597-0.265-0.917-0.242-0.028 0.375 0.238 0.656 0.796 0.844 0.641 0.265 1.016 0.476 1.121 0.636-0.027 0.055-0.078 0.028-0.16-0.078z" inkscape:connector-curvature="0"/>
      <path id="path48" style="fill-rule:evenodd;fill:#91793a" d="m27.328 10.723c-0.828-0.137-1.336-0.254-1.523-0.364l-0.477-0.718c-0.215-0.348-0.469-0.465-0.762-0.36-0.293 0.133-0.265 0.332 0.079 0.602 0.402 0.343 0.589 0.558 0.562 0.64-0.027 0.16-0.227 0.266-0.602 0.317-0.293 0.082-0.386 0.281-0.277 0.601 0.133 0.508 0.664 0.598 1.598 0.282 0.738-0.227 1.164-0.137 1.281 0.257 0.098-0.035 0.34-0.093 0.719-0.179 0.347-0.078 0.535-0.239 0.558-0.481 0.028-0.265-0.089-0.426-0.359-0.48-0.344-0.051-0.613-0.094-0.797-0.117z" inkscape:connector-curvature="0"/>
      <path id="path50" style="fill-rule:evenodd;fill:#f9be70" d="m8.926 15.242c0.719 0.586 2.414 0.746 5.082 0.481-0.856-0.348-1.696-0.79-2.524-1.321-1.652-1.094-2.437-2.148-2.359-3.16 0.055-0.883 0.695-1.387 1.922-1.519 1.121-0.11 1.625-0.387 1.519-0.84-0.214-0.989-1.16-1.563-2.839-1.723-1.813-0.16-3.2 0.574-4.161 2.203-0.906 1.492-0.613 2.918 0.879 4.278 0.746 0.695 1.575 1.226 2.481 1.601z" inkscape:connector-curvature="0"/>
      <path id="path52" style="fill-rule:evenodd;fill:#d9742e" d="m8.246 14.723c0.906 0.476 1.785 0.839 2.641 1.078 1.359 0.347 2.84 0.347 4.441 0-1.707-0.481-2.976-0.934-3.801-1.36-0.507-0.242-1.054-0.668-1.64-1.281l-0.68-0.84c-0.187 0.641-0.426 1.067-0.723 1.281-0.183 0.133-0.464 0.239-0.839 0.321l-0.477 0.117 1.078 0.684z" inkscape:connector-curvature="0"/>
      <path id="path54" style="fill-rule:evenodd;fill:#d9742e" d="m5.926 8.723c-0.078 0.078-0.145 0.171-0.199 0.277-0.133 0.215-0.188 0.336-0.161 0.359 0.051 0.055-0.132 0.414-0.558 1.082l0.558 0.559c0.454 0.426 0.868 0.75 1.239 0.961 0.59 0.293 1.32 0.293 2.203 0l0.117-1.442c-0.719 0.161-1.344 0.082-1.879-0.238-0.32-0.215-0.641-0.535-0.961-0.961l-0.359-0.597z" inkscape:connector-curvature="0"/>
      <path id="path56" style="fill-rule:evenodd;fill:#d9742e" d="m9.645 9.961 1.242-0.281-0.52-0.957c-0.082-0.215-0.094-0.469-0.039-0.762 0.024-0.16 0.067-0.293 0.117-0.399-0.531-0.269-0.945-0.429-1.238-0.48-0.187-0.027-0.414 0.023-0.68 0.156l-0.32 0.242c0.078 0.719 0.172 1.243 0.277 1.559 0.082 0.187 0.297 0.402 0.641 0.641 0.187 0.109 0.359 0.203 0.52 0.281z" inkscape:connector-curvature="0"/>
      <path id="path58" style="fill-rule:evenodd;fill:#e15e18" d="m7.527 12.883c-0.507-0.028-1-0.149-1.48-0.364l-0.563-0.281 0.282 0.524c0.187 0.371 0.359 0.625 0.519 0.757 0.215 0.215 0.68 0.547 1.403 1l1.32-0.078c0.613 0 1.066-0.226 1.359-0.679l-1.16-1.442c-0.293 0.426-0.855 0.613-1.68 0.563z" inkscape:connector-curvature="0"/>
      <path id="path60" style="fill-rule:evenodd;fill:#ffe0b7" d="m8.328 10.121v0.078c0.266-0.078 0.36-0.25 0.277-0.516-0.078-0.242-0.238-0.429-0.48-0.562-0.344 0.242-0.52 0.469-0.52 0.68 0 0.215 0.243 0.32 0.723 0.32z" inkscape:connector-curvature="0"/>
      <path id="path62" style="fill-rule:evenodd;fill:#ffe0b7" d="m11.227 9.402c0.113-0.086 0.296-0.207 0.539-0.363 0.214-0.184 0.132-0.356-0.239-0.516-0.32-0.136-0.507-0.043-0.562 0.278-0.047 0.281 0.043 0.48 0.262 0.601z" inkscape:connector-curvature="0"/>
      <path id="path64" style="fill-rule:evenodd;fill:#ffe0b7" d="m7.965 12.562-0.277 0.079c0.371 0.027 0.718 0 1.039-0.079 0-0.187-0.133-0.347-0.399-0.48-0.269-0.109-0.508-0.109-0.723 0-0.238 0.105-0.304 0.226-0.199 0.359 0.133 0.133 0.321 0.172 0.559 0.121z" inkscape:connector-curvature="0"/>
      <path id="path66" style="fill-rule:evenodd;fill:#a84612" d="m8.707 14.601c0.231 0.161 0.488 0.348 0.777 0.559 0.641 0.426 1.227 0.695 1.762 0.801 0.586 0.078 1.172 0.121 1.762 0.121 0.824-0.027 1.332-0.176 1.519-0.441 0.028 0-0.015-0.055-0.121-0.161-0.48 0.321-1.187 0.36-2.121 0.121-1.012-0.347-1.719-0.546-2.117-0.601-0.578-0.106-1.063-0.238-1.461-0.399zm-0.762-0.441c-0.468-0.359-0.793-0.84-0.98-1.437-0.293 0.05-0.598 0.05-0.918 0-0.149-0.032-0.27-0.071-0.359-0.122l0.117 0.2-0.16-0.16c0 0.425 0.269 0.785 0.8 1.082 0.293 0.183 0.762 0.398 1.403 0.636 0.043-0.082 0.074-0.152 0.097-0.199 0.071 0.059 0.145 0.109 0.223 0.16 0.156 0.102 0.336 0.196 0.539 0.281-0.309-0.222-0.555-0.398-0.742-0.519l-0.02 0.078z" inkscape:connector-curvature="0"/>
      <path id="path68" style="fill-rule:evenodd;fill:#a84612" d="m6.008 11.16c-0.028-0.266 0.012-0.664 0.117-1.199 0.082-0.453 0.066-0.84-0.039-1.16-0.348 0.16-0.586 0.535-0.719 1.121-0.16 0.613-0.121 1.051 0.117 1.316l0.524-0.078z" inkscape:connector-curvature="0"/>
      <path id="path70" style="fill-rule:evenodd;fill:#a84612" d="m8.367 8.519c0.426-0.125 0.879-0.086 1.36 0.122 0.238-0.106 0.375-0.321 0.398-0.641 0.027-0.188 0.043-0.465 0.043-0.84-0.773-0.105-1.215-0.133-1.32-0.078-0.137 0.105-0.188 0.277-0.16 0.516v0.562l-0.321 0.359z" inkscape:connector-curvature="0"/>
      <path id="path72" style="fill-rule:evenodd;fill:#f9be70" d="m16.926 14.359c-0.824-0.343-1.653-0.785-2.481-1.32-1.652-1.09-2.453-2.145-2.398-3.156 0.055-0.883 0.691-1.375 1.918-1.481 1.148-0.109 1.668-0.386 1.562-0.84-0.215-0.988-1.16-1.562-2.839-1.722-1.84-0.184-3.243 0.535-4.204 2.16-0.879 1.519-0.57 2.961 0.922 4.32 0.746 0.696 1.574 1.227 2.481 1.602 0.691 0.558 2.375 0.707 5.039 0.437z" inkscape:connector-curvature="0"/>
      <path id="path74" style="fill-rule:evenodd;fill:#d9742e" d="m10.086 12.723 1.082 0.679c0.906 0.481 1.785 0.824 2.637 1.039 1.363 0.375 2.84 0.375 4.441 0-1.707-0.453-2.973-0.894-3.801-1.32-0.504-0.266-1.05-0.707-1.64-1.32l-0.68-0.801c-0.16 0.641-0.398 1.055-0.719 1.242-0.187 0.133-0.465 0.254-0.84 0.359l-0.48 0.122z" inkscape:connector-curvature="0"/>
      <path id="path76" style="fill-rule:evenodd;fill:#d9742e" d="m9.727 10.601c0.585 0.321 1.332 0.321 2.238 0l0.082-1.402c-0.719 0.16-1.348 0.082-1.879-0.238-0.32-0.215-0.641-0.535-0.961-0.961l-0.359-0.598c-0.082 0.078-0.149 0.172-0.203 0.281-0.133 0.184-0.184 0.29-0.161 0.317 0.055 0.055-0.117 0.426-0.519 1.121l0.562 0.559c0.426 0.402 0.825 0.707 1.2 0.921z" inkscape:connector-curvature="0"/>
      <path id="path78" style="fill-rule:evenodd;fill:#d9742e" d="m11.406 7.68c0.078 0.187 0.293 0.402 0.641 0.64 0.187 0.133 0.359 0.242 0.519 0.321l1.239-0.321-0.52-0.918c-0.105-0.32-0.078-0.719 0.082-1.203-0.535-0.266-0.949-0.426-1.242-0.476-0.184-0.028-0.398 0.023-0.641 0.16l-0.316 0.238c0.051 0.746 0.133 1.266 0.238 1.559z" inkscape:connector-curvature="0"/>
      <path id="path80" style="fill-rule:evenodd;fill:#e15e18" d="m13.285 12.402-1.16-1.402c-0.293 0.426-0.852 0.613-1.68 0.562-0.504-0.027-1-0.148-1.48-0.363l-0.559-0.277 0.282 0.519c0.183 0.371 0.359 0.614 0.519 0.719 0.238 0.215 0.707 0.559 1.398 1.039l1.36-0.078c0.59 0 1.027-0.238 1.32-0.719z" inkscape:connector-curvature="0"/>
      <path id="path82" style="fill-rule:evenodd;fill:#ffe0b7" d="m11.246 8.801v0.082c0.266-0.082 0.359-0.254 0.281-0.524-0.082-0.238-0.242-0.437-0.48-0.597-0.348 0.265-0.52 0.492-0.52 0.679 0 0.211 0.239 0.332 0.719 0.36z" inkscape:connector-curvature="0"/>
      <path id="path84" style="fill-rule:evenodd;fill:#ffe0b7" d="m14.168 8.039c0.297-0.188 0.469-0.309 0.52-0.356 0.21-0.187 0.132-0.363-0.243-0.523-0.32-0.133-0.492-0.039-0.519 0.281-0.047 0.282 0.035 0.481 0.242 0.598z" inkscape:connector-curvature="0"/>
      <path id="path86" style="fill-rule:evenodd;fill:#ffe0b7" d="m10.887 11.242-0.282 0.078c0.348 0.028 0.707 0 1.083-0.082-0.028-0.211-0.176-0.371-0.442-0.476-0.266-0.11-0.508-0.11-0.719 0-0.242 0.105-0.293 0.226-0.16 0.359 0.106 0.133 0.278 0.172 0.52 0.121z" inkscape:connector-curvature="0"/>
      <path id="path88" style="fill-rule:evenodd;fill:#a84612" d="m10.766 13.039 0.101-0.219c-0.469-0.34-0.793-0.812-0.98-1.418-0.293 0.051-0.602 0.051-0.922 0-0.125-0.027-0.231-0.058-0.32-0.101l0.121 0.183-0.161-0.16c0 0.426 0.266 0.785 0.801 1.078 0.293 0.184 0.746 0.399 1.36 0.637zm3.402 1.562c0.531 0.106 1.117 0.149 1.758 0.122 0.828 0 1.347-0.149 1.558-0.442l-0.117-0.121c-0.48 0.293-1.187 0.32-2.121 0.082-1.012-0.348-1.719-0.547-2.121-0.601-0.574-0.102-1.059-0.227-1.457-0.379 0.227 0.164 0.488 0.355 0.777 0.578 0.614 0.429 1.188 0.679 1.723 0.761z" inkscape:connector-curvature="0"/>
      <path id="path90" style="fill-rule:evenodd;fill:#a84612" d="m8.926 9.801c-0.028-0.266 0.015-0.653 0.121-1.16 0.078-0.454 0.066-0.84-0.039-1.161-0.32 0.133-0.563 0.508-0.723 1.121-0.16 0.586-0.117 1.012 0.121 1.282l0.52-0.082z" inkscape:connector-curvature="0"/>
      <path id="path92" style="fill-rule:evenodd;fill:#a84612" d="m11.086 7.242c-0.027 0.051-0.027 0.078 0 0.078 0.055 0.028 0.082 0.055 0.082 0.082l0.18-0.219c0.422-0.089 0.855-0.054 1.297 0.098 0.242-0.105 0.375-0.32 0.402-0.64 0.027-0.184 0.039-0.454 0.039-0.801-0.774-0.106-1.199-0.133-1.281-0.078-0.133 0.078-0.2 0.254-0.2 0.519v0.559l-0.257 0.343c-0.09 0.012-0.176 0.032-0.262 0.059z" inkscape:connector-curvature="0"/>
      <path id="path94" style="fill-rule:evenodd;fill:#f9be70" d="m14.727 11.801c0.265 0.48 1.093 0.972 2.48 1.48 0.691 0.266 1.359 0.481 2 0.641-0.641-0.586-1.227-1.266-1.762-2.039-1.066-1.575-1.343-2.817-0.84-3.723 0.454-0.797 1.266-1.051 2.442-0.758 1.094 0.293 1.691 0.199 1.801-0.281 0.211-0.961-0.414-1.801-1.883-2.52-1.625-0.773-3.227-0.574-4.797 0.602-1.496 1.094-1.84 2.52-1.043 4.281l1.602 2.317z" inkscape:connector-curvature="0"/>
      <path id="path96" style="fill-rule:evenodd;fill:#d9742e" d="m20.406 14.441c-1.386-1.015-2.375-1.851-2.961-2.519-0.371-0.426-0.679-1-0.918-1.719-0.132-0.375-0.226-0.707-0.281-1-0.453 0.504-0.851 0.813-1.199 0.918-0.242 0.055-0.547 0.066-0.922 0.039l-0.52-0.039 0.723 0.961c0.613 0.746 1.266 1.371 1.957 1.879 1.121 0.801 2.496 1.293 4.121 1.48z" inkscape:connector-curvature="0"/>
      <path id="path98" style="fill-rule:evenodd;fill:#d9742e" d="m14.766 4.762c-0.106 0.05-0.215 0.121-0.321 0.199-0.211 0.133-0.304 0.215-0.277 0.238 0.023 0.082-0.309 0.363-1 0.84 0.078 0.215 0.172 0.457 0.277 0.723 0.243 0.531 0.481 0.961 0.723 1.277 0.426 0.484 1.117 0.723 2.078 0.723l0.68-1.282c-0.719-0.082-1.266-0.359-1.641-0.839-0.211-0.293-0.359-0.692-0.437-1.2-0.055-0.265-0.082-0.492-0.082-0.679z" inkscape:connector-curvature="0"/>
      <path id="path100" style="fill-rule:evenodd;fill:#d9742e" d="m17.645 7.16 1.281 0.121-0.078-1.039c0.023-0.32 0.226-0.668 0.597-1.043-0.371-0.426-0.691-0.719-0.961-0.879-0.156-0.082-0.382-0.094-0.679-0.039l-0.399 0.078c-0.238 0.696-0.375 1.215-0.398 1.563-0.028 0.183 0.078 0.453 0.32 0.801 0.106 0.16 0.211 0.304 0.317 0.437z" inkscape:connector-curvature="0"/>
      <path id="path102" style="fill-rule:evenodd;fill:#e15e18" d="m16.688 10.883-0.442-1.684c-0.453 0.297-1.051 0.27-1.801-0.078-0.453-0.215-0.867-0.48-1.238-0.801l-0.402-0.437c0 0.156 0.015 0.343 0.043 0.558 0.027 0.399 0.078 0.692 0.16 0.879l0.879 1.403 1.281 0.359c0.531 0.211 1.039 0.144 1.52-0.199z" inkscape:connector-curvature="0"/>
      <path id="path104" style="fill-rule:evenodd;fill:#ffe0b7" d="m16.367 6.883-0.039 0.039c0.293 0.027 0.453-0.094 0.477-0.36 0.027-0.242-0.024-0.48-0.16-0.722-0.45 0.109-0.719 0.254-0.797 0.441-0.11 0.215 0.066 0.414 0.519 0.602z" inkscape:connector-curvature="0"/>
      <path id="path106" style="fill-rule:evenodd;fill:#ffe0b7" d="m19.367 7.141c0.137-0.024 0.363-0.075 0.68-0.141 0.265-0.106 0.254-0.293-0.039-0.559-0.242-0.242-0.442-0.215-0.602 0.082-0.156 0.243-0.168 0.45-0.039 0.618z" inkscape:connector-curvature="0"/>
      <path id="path108" style="fill-rule:evenodd;fill:#ffe0b7" d="m14.965 9h-0.277c0.425 0.16 0.773 0.242 1.039 0.242 0.078-0.187 0.011-0.375-0.2-0.559-0.215-0.187-0.441-0.269-0.679-0.242-0.27 0.028-0.375 0.121-0.321 0.282 0.051 0.132 0.2 0.226 0.438 0.277z" inkscape:connector-curvature="0"/>
      <path id="path110" style="fill-rule:evenodd;fill:#a84612" d="m14.285 10.48c-0.281-0.484-0.39-1.047-0.32-1.679-0.266-0.028-0.547-0.121-0.84-0.282-0.113-0.07-0.199-0.136-0.258-0.199l0.02 0.16-0.082-0.16c-0.184 0.399-0.106 0.828 0.242 1.281 0.215 0.239 0.574 0.586 1.078 1.04l0.16-0.161zm5.481 3.559-0.078-0.156c-0.559 0.105-1.227-0.11-2-0.645-0.774-0.664-1.336-1.09-1.68-1.277-0.496-0.281-0.895-0.563-1.203-0.84-0.184-0.313-0.332-0.555-0.438-0.723l-0.082 0.082c0.035 0.071 0.078 0.137 0.121 0.2 0.11 0.144 0.242 0.293 0.399 0.441 0.14 0.227 0.3 0.492 0.48 0.801 0.403 0.613 0.828 1.051 1.281 1.316 0.508 0.297 1.028 0.524 1.559 0.684 0.773 0.265 1.32 0.304 1.641 0.117z" inkscape:connector-curvature="0"/>
      <path id="path112" style="fill-rule:evenodd;fill:#a84612" d="m13.766 7.039c0.082-0.238 0.293-0.598 0.64-1.078 0.266-0.375 0.414-0.735 0.442-1.078-0.375 0.05-0.762 0.316-1.16 0.797-0.403 0.48-0.547 0.894-0.442 1.242l0.52 0.117z" inkscape:connector-curvature="0"/>
      <path id="path114" style="fill-rule:evenodd;fill:#a84612" d="m17.145 5.383c-0.083-0.016-0.172-0.024-0.258-0.024-0.055 0.055-0.067 0.094-0.039 0.121 0.027 0 0.039 0.016 0.039 0.039l0.258-0.136c0.425 0.05 0.808 0.242 1.14 0.578 0.266-0.028 0.496-0.188 0.68-0.481l0.402-0.718c-0.695-0.375-1.094-0.547-1.199-0.52-0.16 0.027-0.281 0.16-0.363 0.399-0.133 0.292-0.227 0.468-0.278 0.519l-0.382 0.223z" inkscape:connector-curvature="0"/>
      <path id="path116" style="fill-rule:evenodd;fill:#3b5200" d="m25.688 15.562c1.624-1.679 2.73-2.761 3.32-3.242 0.078-0.082 0.879-0.625 2.398-1.64 0.801-0.532 1.106-0.934 0.922-1.2-0.32-0.453-0.922-0.425-1.801 0.082 0.504-0.668 0.571-1.109 0.2-1.32-0.243-0.16-0.575-0.082-1 0.238l-0.602 0.481-1.16-0.758c-2.371 2.398-4 3.934-4.879 4.598-0.559 0.425-1.547 1.308-2.961 2.64l-1.957 1.879 2-0.758-2 2.399 3.117-2.16-1.117 2.082 5.039-5.121-1.762 4.199 2.243-2.399z" inkscape:connector-curvature="0"/>
      <path id="path118" style="fill-rule:evenodd;fill:#92a661" d="m32.328 9.48c-0.32-0.453-0.922-0.425-1.801 0.082 0.664-0.722 0.801-1.187 0.399-1.402-0.242-0.16-0.614-0.133-1.121 0.082l-0.719 0.359c-0.32-0.265-0.691-0.402-1.117-0.402-0.215 0-0.469 0.176-0.762 0.524-0.453 0.636-0.801 1.066-1.039 1.277l0.48 0.16c0.079 0.027 0.25 0.039 0.52 0.039 0.211 0.027 0.359 0.07 0.437 0.121 0.137 0.055 0.243 0.215 0.321 0.481 0.082 0.054 0.574 0.105 1.48 0.16 0.641 0.027 0.856 0.226 0.641 0.601 1.121-0.75 1.707-1.136 1.762-1.16 0.503-0.402 0.675-0.707 0.519-0.922z" inkscape:connector-curvature="0"/>
      <path id="path120" style="fill-rule:evenodd;fill:#90a701" d="m19.965 16.562 0.441-0.121c0.375-0.16 0.735-0.402 1.078-0.718 0.508-0.43 1.629-1.442 3.364-3.043 1.785-1.625 2.664-2.442 2.636-2.442-0.211 0-0.652 0.363-1.316 1.082-0.242 0.266-1.348 1.215-3.32 2.84l-2.883 2.402z" inkscape:connector-curvature="0"/>
      <path id="path122" style="fill-rule:evenodd;fill:#90a701" d="m26.766 12.562-2.918 2.278 3.32-3.399-8.523 7.078 3.882-2.878-1.8 3 6.039-6.079z" inkscape:connector-curvature="0"/>
      <path id="path124" style="fill-rule:evenodd;fill:#90a701" d="m25.605 15.32-1.519 2.039 6.398-6.238c-1.73 1.012-2.73 1.641-3 1.879-0.183 0.16-0.812 0.933-1.879 2.32z" inkscape:connector-curvature="0"/>
      <path id="path126" style="fill-rule:evenodd;fill:#bdd67d" d="m30.465 10.98c0.078-0.089 0.207-0.125 0.383-0.097 0.05 0 0.199-0.094 0.437-0.282 0.481-0.347 0.613-0.601 0.403-0.761-0.133-0.133-0.415-0.039-0.84 0.281-0.293 0.293-0.453 0.492-0.481 0.602 0.078 0.078 0.117 0.144 0.117 0.199l-0.019 0.058z" inkscape:connector-curvature="0"/>
      <path id="path128" style="fill-rule:evenodd;fill:#bdd67d" d="m29.727 9.961 0.48-0.602c0.293-0.371 0.438-0.57 0.438-0.597 0.027-0.426-0.227-0.375-0.758 0.16-0.403 0.316-0.625 0.531-0.68 0.64-0.027 0.293-0.066 0.52-0.121 0.68l-0.121 0.18c0.156-0.125 0.406-0.278 0.762-0.461z" inkscape:connector-curvature="0"/>
      <path id="path130" style="fill-rule:evenodd;fill:#bdd67d" d="m27.484 9.801-0.039 0.121 0.442-0.281c0.425-0.426 0.64-0.653 0.64-0.68 0.028-0.242-0.132-0.266-0.48-0.082-0.106 0.082-0.242 0.226-0.402 0.441-0.161 0.242-0.211 0.403-0.161 0.481z" inkscape:connector-curvature="0"/>
      <path id="path132" style="fill-rule:evenodd;fill:#bdd67d" d="m28.086 10.519c0.043-0.019 0.098-0.046 0.16-0.078 0.238-0.187 0.359-0.386 0.359-0.601-0.105 0-0.238 0.093-0.398 0.281-0.16 0.215-0.199 0.348-0.121 0.398z" inkscape:connector-curvature="0"/>
      <path id="path134" style="fill-rule:evenodd;fill:#3b5200" d="m29.965 10.441c0.347-0.453 0.68-0.785 1-1-0.238 0.082-0.414 0.16-0.52 0.242-0.211 0.211-0.371 0.356-0.48 0.438l-1.238 0.918h0.117c0.054-0.051 0.215-0.012 0.484 0.121 0.106-0.187 0.317-0.426 0.637-0.719z" inkscape:connector-curvature="0"/>
      <path id="path136" style="fill-rule:evenodd;fill:#3b5200" d="m27.887 11.121c-0.028 0.027 0 0.066 0.082 0.117 0.051 0.055 0.117 0.082 0.199 0.082 0.105-0.293 0.277-0.586 0.516-0.879-0.133 0-0.278 0.078-0.438 0.239-0.215 0.214-0.348 0.336-0.402 0.359l0.043 0.082z" inkscape:connector-curvature="0"/>
      <path id="path138" style="fill-rule:evenodd;fill:#3b5200" d="m27.605 10.441v0.442c0.028-0.082 0.176-0.254 0.442-0.524l0.398-0.679c0.028-0.051 0.188-0.266 0.481-0.641 0.215-0.266 0.347-0.492 0.402-0.68l-0.359 0.321c-0.11-0.028-0.215 0.027-0.321 0.16-0.109 0.133-0.187 0.226-0.242 0.281-0.211 0.266-0.386 0.465-0.519 0.598-0.192 0.238-0.317 0.445-0.379 0.621l0.097 0.101z" inkscape:connector-curvature="0"/>
      <path id="path140" style="fill-rule:evenodd;fill:#3b5200" d="m22.367 13.762 4.039-3.481c0.215-0.215 0.387-0.746 0.52-1.601l-2.719 2.761c-0.187 0.184-0.949 0.813-2.281 1.879-1.254 0.988-1.867 1.481-1.84 1.481l2.281-1.039z" inkscape:connector-curvature="0"/>
      <path id="path142" style="fill-rule:evenodd;fill:#989a13" d="m20.766 12.199c2.453 0.934 4.32 0.469 5.601-1.398 0.504-0.746 0.653-1.508 0.438-2.282-0.239-0.824-0.907-1.437-2-1.839-2.133-0.825-3.719-0.266-4.758 1.679-0.426 0.774-0.586 1.535-0.481 2.282 0.133 0.773 0.532 1.292 1.2 1.558z" inkscape:connector-curvature="0"/>
      <path id="path144" style="fill-rule:evenodd;fill:#c6d077" d="m21.207 11.641c1.945 0.746 3.426 0.386 4.438-1.079 1.015-1.468 0.601-2.546-1.239-3.242-1.679-0.668-2.933-0.226-3.761 1.321-0.825 1.519-0.637 2.519 0.562 3z" inkscape:connector-curvature="0"/>
      <path id="path146" style="fill-rule:evenodd;fill:#feffeb" d="m22.086 11.801 0.84 0.121 0.199-2.199-1.039 2.078z" inkscape:connector-curvature="0"/>
      <path id="path148" style="fill-rule:evenodd;fill:#feffeb" d="m25.965 9.723v-1.043l-2.84 1.043h2.84z" inkscape:connector-curvature="0"/>
      <path id="path150" style="fill-rule:evenodd;fill:#feffeb" d="m23.047 7.242c-0.348-0.082-0.629-0.082-0.84 0l-0.723 0.441 1.563 1.84v-2.281z" inkscape:connector-curvature="0"/>
      <path id="path152" style="fill-rule:evenodd;fill:#feffeb" d="m21.328 9.16 0.078-0.039c0.078-0.027 0.094-0.105 0.039-0.238h-0.277c-0.027 0.133-0.016 0.211 0.039 0.238 0.039 0.02 0.082 0.035 0.121 0.039z" inkscape:connector-curvature="0"/>
      <path id="path154" style="fill-rule:evenodd;fill:#feffeb" d="m24.168 8.32-0.203 0.082c0.242 0.106 0.402 0.078 0.48-0.082 0.11-0.16 0.094-0.332-0.039-0.519-0.265 0.027-0.426 0.093-0.48 0.199-0.078 0.109 0 0.215 0.242 0.32z" inkscape:connector-curvature="0"/>
      <path id="path156" style="fill-rule:evenodd;fill:#feffeb" d="m21.887 10.641-0.082 0.16c0.773-0.293 0.867-0.481 0.281-0.559-0.719-0.133-0.785 0-0.199 0.399z" inkscape:connector-curvature="0"/>
      <path id="path158" style="fill-rule:evenodd;fill:#feffeb" d="m23.887 11-0.242-0.117c0.507 0.343 0.734 0.226 0.683-0.36-0.027-0.136-0.133-0.148-0.32-0.043-0.215 0.106-0.254 0.282-0.121 0.52z" inkscape:connector-curvature="0"/>
      <path id="path160" style="fill-rule:evenodd;fill:#9c8b63" d="m36.645 10.562 0.48-0.363-21.52-7.68c-0.293-0.023-5.492 3.094-15.597 9.364l0.519 0.156c9.653-5.84 14.641-8.758 14.957-8.758 0.215 0 3.801 1.215 10.762 3.641 3.492 1.199 6.961 2.414 10.399 3.64z" inkscape:connector-curvature="0"/>
    </g>
  </g>
<metadata><rdf:RDF><cc:Work><dc:format>image/svg+xml</dc:format><dc:type rdf:resource="http://purl.org/dc/dcmitype/StillImage"/><cc:license rdf:resource="http://creativecommons.org/licenses/publicdomain/"/><dc:publisher><cc:Agent rdf:about="http://openclipart.org/"><dc:title>Openclipart</dc:title></cc:Agent></dc:publisher></cc:Work><cc:License rdf:about="http://creativecommons.org/licenses/publicdomain/"><cc:permits rdf:resource="http://creativecommons.org/ns#Reproduction"/><cc:permits rdf:resource="http://creativecommons.org/ns#Distribution"/><cc:permits rdf:resource="http://creativecommons.org/ns#DerivativeWorks"/></cc:License></rdf:RDF></metadata></svg>
